<?xml version="1.0" encoding="UTF-8"?><svg id="Layer_1" xmlns="http://www.w3.org/2000/svg" viewBox="0 0 255.07 168.21"><defs><style>.cls-1{fill:#fefefe;stroke-width:0px;}</style></defs><path class="cls-1" d="m138.77,124.26c-.09,1.46-.33,2.9-.44,4.34-.18,2.1-.15,4.19-.24,6.29-.04,1.31-.04,2.61,0,3.9.07,1.46.24,2.92.31,4.39.15,3.32-.2,6.65-.53,9.97-.29-3.01-.62-6.05-.55-9.08.02-1.48.22-2.97.31-4.45.09-1.53.11-3.08.04-4.61-.09-2.46-.07-4.94-.29-7.38-.09-.86-.2-1.73-.31-2.57-.09-.82-.22-1.75-.02-2.57.18-.8.51-1.55.62-2.37.11-.86.09-1.73,0-2.59-.2-1.95.02-3.86.22-5.81.15,1.49.44,3.03.35,4.54-.09,1.42-.42,2.75-.18,4.17.11.58.27,1.13.51,1.66.29.69.27,1.46.22,2.19m39.23-37.46c-.55-.33-.22-.13,0,0-1.75-1.06-2.85-3.06-4.22-4.54-.64-.71-1.37-1.4-2.34-1.62-.31-.07-1.02.02-1.22-.13-.13-.13-.24-.49-.31-.66-.13-.29-.24-.58-.35-.86-.77-2.06-1.24-4.23-1.48-6.42-.15-1.33-.22-2.64-.46-3.97-.42-2.26-1.11-4.47-1.97-6.6-.33-.84-.64-1.84-1.17-2.59-.4-.58-.75-1.06-.95-1.75-.29-1.04-.15-2.24-.22-3.32-.09-1.13-.2-2.26-.33-3.39-.29-2.17-.64-4.34-1.15-6.47-.11-.51,0-1.02.04-1.55.04-.58.07-1.15.09-1.75,0-1.13-.02-2.26-.18-3.37-.27-2.04-1.48-3.88-2.56-5.58-1.17-1.86-3.07-2.61-5.15-3.01-1.11-.2-2.21-.31-3.34-.35-.53,0-1.08-.02-1.61,0-.33,0-.42,0-.69-.22-.22-.15-.44-.33-.66-.49-.91-.62-1.86-1.22-2.81-1.77-.27-.16-.51-.31-.77-.47-.13-.07-.44-.18-.51-.31-.02-.07,0-.2-.02-.24-.11-1-.22-1.97-.33-2.97-.04-.42-.09-.86-.13-1.28,0-.04-.04-.2-.02-.24.02-.07.18-.13.24-.18.22-.16.42-.33.6-.53.42-.51.6-1.2.82-1.82.31-.89.57-1.77.82-2.66,1.04-3.88,1.55-8.66-.69-12.23-.99-1.62-2.59-2.72-4.42-3.17-.71-.18-2.54-.4-3.89-.22-1.83.24-3.69.89-4.99,2.22-1.39,1.44-2.03,3.41-2.32,5.36-.53,3.9.44,7.75,1.75,11.41.13.4.31.8.57,1.13.13.18.31.31.46.44.07.04.35.2.38.27.07.18-.07.64-.09.82-.11,1.04-.22,2.1-.35,3.15,0,.2,0,.58-.09.75-.07.13-.38.22-.51.31-.27.16-.51.31-.77.47-.49.29-.95.58-1.44.89-.46.29-.93.6-1.37.89-.2.13-.4.29-.6.42-.29.22-.38.29-.75.27-1.13-.02-2.25,0-3.38.13-1.99.22-4.33.64-5.83,2.06-.71.66-1.19,1.62-1.7,2.46-.53.91-1.06,1.86-1.44,2.86-.38,1.02-.44,2.13-.49,3.19-.04,1.11-.02,2.24.07,3.35.04.53.15,1.02.04,1.55-.13.55-.24,1.11-.35,1.68-.22,1.09-.4,2.15-.57,3.23-.33,2.24-.57,4.48-.66,6.73-.04,1.04-.13,1.99-.75,2.88-.38.53-.64,1.02-.91,1.62-1.52,3.43-2.54,7.02-2.9,10.77-.2,2.08-.51,4.14-1.11,6.14-.15.49-.31.97-.49,1.44-.09.27-.2.51-.31.78-.09.2-.2.6-.35.75-.18.18-.91.07-1.22.13-.49.11-.95.33-1.35.66-1.64,1.28-2.7,3.19-4.18,4.63-.33.33-.66.6-1.04.86-.31.22-.66.49-.66.89,0,.71.73.89,1.28.84.66-.04,1.35-.24,1.92-.58.35-.22.64-.51.95-.8.24-.22.55-.64.88-.73-.18.73-.62,1.44-.95,2.1-.44.84-.91,1.68-1.39,2.53-.38.66-1.19,1.59-.86,2.39.62,1.44,1.99-.35,2.43-.95.38-.51.69-1.04,1.04-1.53.31-.44.62-1,1.06-1.31,0,.47-.2.95-.33,1.4-.18.55-.38,1.09-.57,1.62-.31.84-.95,2.02-.73,2.95.13.53.69.91,1.19.62.53-.31.8-1.04,1.04-1.57.55-1.26.95-2.59,1.48-3.85.07,1.13-.18,2.24-.2,3.37,0,.55-.07,1.37.35,1.82.4.4.99.18,1.26-.27.38-.69.31-1.66.38-2.41.04-.6.11-1.17.2-1.77.04-.24.04-1.02.31-1.15.29.29.07,1.28.02,1.64-.07.64-.13,1.33-.04,1.97.09.6.6,1.35,1.24.82.42-.35.53-1.04.57-1.53.07-.58.07-1.15.11-1.73.07-.8.18-1.62.24-2.41.04-.38.18-.69.31-1.06.24-.64.46-1.28.64-1.93.18-.66.35-1.35.35-2.04,0-.22,0-.42-.07-.64-.02-.13-.18-.33-.18-.47,0-.29.29-.71.38-.95.66-1.6,1.41-3.17,2.19-4.72,1.83-3.66,3.87-7.24,5.13-11.17.66-2.08.95-4.25,1.5-6.36.51-1.91,1.15-3.79,1.86-5.65.27,1.02.53,2.04.8,3.06.2.78.53,1.62.62,2.44.09.91,0,1.88,0,2.79,0,1.44,0,2.9-.02,4.34,0,.8-.11,1.68,0,2.48.04.33.24.66.33.97.22.62-.15,1.57-.29,2.24-.27,1.44-.51,2.88-.71,4.32-.84,5.83-.49,11.83-.09,17.7.38,5.85,1.3,11.61,2.83,17.28.66,2.44,1.39,4.87,1.46,7.42.04,2.17-.44,4.28-.95,6.38-.71,2.88-1.04,5.72-.71,8.66.33,2.84,1.17,5.58,1.99,8.31.8,2.59,1.57,5.18,2.36,7.78.62,2.02,1.26,4.03,1.77,6.09.18.66.46,1.53.33,2.19-.22,1.15-.97,2.37-1.59,3.37-.6.98-1.28,1.99-2.23,2.66-.31.2-.66.4-.82.78-.27.6.22,1.06.71,1.31.46.22,1.02.24,1.5.38.75.18,1.5.33,2.28.38.31.02.62.04.93,0,.31,0,.62-.18.91-.18h.09s.04.04.11.11c.13.11.2.24.33.35.29.2.64.31.97.38,1.26.29,2.39-.09,2.87-1.35.31.84.99,1.44,1.92,1.46.75,0,1.97-.2,2.25-1,1.08.55,2.59.22,3.71,0,.55-.11,1.15-.2,1.7-.35.46-.13,1.04-.42,1.15-.95.15-.84-1.1-1.35-1.59-1.84-.91-.91-1.59-2.1-2.19-3.24-.46-.89-1.04-1.86-.91-2.9.13-.91.38-1.79.62-2.66.49-1.73,1.02-3.46,1.55-5.16.8-2.57,1.57-5.14,2.36-7.73.82-2.7,1.61-5.43,1.94-8.22.33-2.86,0-5.6-.66-8.37-.53-2.15-1.04-4.32-.99-6.54.04-2.44.73-4.74,1.35-7.07.73-2.72,1.39-5.47,1.86-8.26.46-2.79.75-5.61.99-8.42.24-2.9.35-5.8.42-8.73.04-2.81.11-5.6-.27-8.42-.2-1.37-.44-2.75-.71-4.12-.13-.71-.29-1.44-.44-2.15-.07-.33-.13-.64-.22-.97-.09-.44-.09-.64,0-1.09.18-1.04.07-2.17.07-3.23,0-2.15-.02-4.32-.04-6.47,0-.69.15-1.17.35-1.84l1.15-3.85.24-.8c.6,1.51,1.13,3.03,1.59,4.59.57,1.91.86,3.83,1.33,5.76.99,4.03,2.85,7.78,4.77,11.41.91,1.71,1.77,3.46,2.56,5.23.29.64.73,1.37.88,2.08.07.29-.11.53-.15.84-.07.4,0,.8.04,1.2.2,1.28.69,2.5,1.13,3.7.18.49.18,1.04.22,1.55.09.78.18,1.55.2,2.33,0,.62.04,1.24.29,1.82.27.64,1.06,1.09,1.46.24.31-.64.2-1.53.11-2.22-.04-.35-.07-.69-.09-1.04,0-.2-.09-.69.07-.86.27.11.31.91.33,1.15.09.58.13,1.17.2,1.75.07.78,0,1.75.38,2.44.24.42.8.66,1.19.31.46-.4.42-1.22.42-1.77-.02-1.15-.27-2.3-.22-3.46.55,1.26.93,2.59,1.48,3.85.22.53.51,1.33,1.08,1.6.53.24,1.06-.18,1.15-.71.2-.95-.44-2.08-.75-2.97-.33-.89-.88-1.97-.88-2.95.77.58,1.3,1.68,1.83,2.46.42.64,1.46,2.39,2.41,1.71.86-.64-.04-1.84-.42-2.5-.46-.78-.91-1.57-1.33-2.39-.42-.78-.97-1.64-1.15-2.5.62.16,1.11,1.02,1.59,1.37.53.38,1.15.58,1.79.69.46.07.99.16,1.37-.18.6-.51.15-1.17-.38-1.51"/><path class="cls-1" d="m217.73,154.12c0,.46-.02.92-.05,1.36,0,.37.05.74-.11,1.08-.21.44-.5.87-.75,1.29-.18-.05-.48-.78-.6-.99-.09-.14-.21-.3-.25-.46-.14-.44-.05-1.15-.05-1.63-.02-.97-.04-1.91-.07-2.87-.05-2.16,0-4.35.14-6.53.14-2.32.48-4.6.64-6.9.34-4.67.16-9.4-.18-14.07-.09-1.17-.18-2.37-.3-3.54-.05-.55-.16-1.08-.07-1.63.09-.55.16-1.1.23-1.65.28-2.28.44-4.55.46-6.85.02-2.6-.25-5.17-.21-7.77.05-2.09.23-4.16.28-6.25.02,2,.21,3.98.25,5.95.05,2.07-.16,4.11-.18,6.18-.04,2.32.05,4.64.25,6.94.09,1.08.23,2.16.39,3.24.16,1.15-.09,2.35-.18,3.49-.41,4.67-.62,9.38-.43,14.07.09,2.25.41,4.46.6,6.71.21,2.32.3,4.67.3,6.99,0,1.26,0,2.55-.04,3.82m-.6-72.54c-.14,2.78-.21,5.56-.28,8.34q0-.37,0,1.13c0,.34-.07.67-.07,1.01-.05-3.49-.21-6.99-.39-10.48.25.02.46.02.71,0m34.66,1.54c.53.46,1.21.67,1.88.71.41.02.94,0,1.21-.37.39-.48,0-1.06-.48-1.31.11.05.16.09,0,0-1.79-.92-2.79-2.71-4.23-4.02-.78-.71-1.65-1.4-2.68-1.65-.32-.07-.73,0-1.01-.09-.37-.11-.66-1.06-.8-1.4-.94-2.34-1.39-4.94-1.97-7.4-.71-2.99-1.46-6.28-3.32-8.78-.55-.74-1.19-1.38-1.58-2.25-.34-.71-.48-1.47-.6-2.23-.32-2.11-.8-4.23-1.24-6.32-.41-2-.91-4-1.23-6.02-.21-1.17-.3-2.41-.39-3.61-.07-.76,0-1.54-.09-2.3-.14-1.08-.43-2.14-.96-3.08-1.08-2.02-2.91-3.49-4.94-4.48-1.01-.51-2.08-.87-3.18-1.2-1.05-.3-2.27-.37-3.27-.8-.82-.34-1.6-1.22-1.72-2.14-.07-.51,0-1.03,0-1.54,0-.23-.02-.48,0-.74.02-.3.14-.34.37-.57.71-.71,1.28-1.56,1.76-2.46,1.05-2.02,1.58-4.25,1.79-6.53.2-2.37.2-4.8-.57-7.1-.57-1.68-1.58-3.15-3.09-4.14-1.9-1.24-4.37-1.49-6.57-1.08-1.69.32-3.34,1.2-4.42,2.57-1.46,1.84-2.01,4.25-2.08,6.57-.07,2.25.18,4.53.75,6.69.3,1.1.73,2.18,1.26,3.19.23.41.48.83.75,1.22.3.41.69.69.98,1.06.23.3.14.78.14,1.13,0,.53.04,1.08,0,1.59-.05.78-.57,1.54-1.21,1.98-.92.62-2.22.67-3.27.94-4.28,1.13-8.53,3.68-9.4,8.37-.16.9-.09,1.77-.16,2.67-.02.55-.11,1.1-.16,1.66-.11,1.17-.25,2.32-.5,3.47-.48,2.3-.98,4.6-1.44,6.9-.23,1.17-.48,2.34-.69,3.52-.14.8-.23,1.59-.5,2.37-.53,1.36-1.6,2.32-2.36,3.54-1.67,2.8-2.33,6.18-3.09,9.33-.23.94-.46,1.88-.69,2.83-.23.92-.48,1.84-.8,2.71-.18.48-.37.97-.62,1.4-.16.25-.18.37-.46.41-.21.05-.43,0-.64.05-1.92.34-3.41,2.14-4.6,3.54-.62.71-1.26,1.43-2.08,1.93-.39.23-.92.41-1.05.9-.09.32,0,.62.27.8.62.46,1.72.21,2.33-.07.39-.18.69-.46.96-.76.14-.14.41-.62.66-.55-.02.34-.23.71-.39,1.01-.27.55-.57,1.1-.87,1.65-.66,1.17-1.49,2.25-2.08,3.45-.21.41-.48,1.17.09,1.45.53.25,1.05-.44,1.33-.8.71-.9,1.37-1.84,2.01-2.78-.5,1.1-1.12,2.16-1.6,3.26-.25.55-.62,1.29-.5,1.91.09.53.59.74,1.05.46.89-.53,1.26-1.98,1.67-2.87.39-.87.73-1.95,1.37-2.69-.07.83-.5,1.7-.8,2.46-.23.57-.48,1.15-.66,1.75-.14.41-.37,1.06-.11,1.47.25.48.85.37,1.19.05.37-.34.57-.85.75-1.29.46-1.1.87-2.25,1.4-3.33-.21.87-.5,1.77-.53,2.67,0,.57.34,1.31,1.03.83.41-.3.59-.92.75-1.36.3-.87.53-1.79.78-2.69s.73-1.63,1.14-2.46c.55-1.13,1.08-2.32,1.33-3.56.09-.48.16-1.03,0-1.52-.05-.14-.09-.21-.07-.34.02-.11.18-.3.25-.39.23-.34.43-.67.66-1.01,1.01-1.54,1.99-3.08,2.95-4.64,1.12-1.79,2.2-3.61,3.2-5.45.96-1.77,1.81-3.54,2.2-5.52.23-1.08.46-2.14.98-3.1.55-.99,1.12-1.95,1.56-2.99.8-1.88,1.46-3.84,2.08-5.82.32,1.59.73,3.13,1.14,4.67.46,1.68.43,3.4.11,5.1-.41,2.32-1.33,4.46-2.26,6.6-.96,2.14-1.74,4.32-2.31,6.6-1.19,4.71-1.35,9.47-.66,14.27.69,4.76,2.06,9.4,3.32,14.02,1.24,4.55,2.49,9.19,2.52,13.95,0,1.88-.07,3.79-.23,5.68-.23,2.39-.69,4.76-.8,7.17-.14,2.46.21,4.87.69,7.29.48,2.39,1.03,4.76,1.58,7.13.57,2.41,1.17,4.83,1.72,7.24.53,2.37,1.07,4.76,1.33,7.15.07.55.18,1.17.05,1.7-.14.57-.3,1.13-.5,1.68-.37,1.06-.8,2.14-1.37,3.1-.46.76-1.01,1.31-1.69,1.86-.5.41-.48,1.15,0,1.59.21.18.5.32.75.39.32.09.69-.05,1.01,0,.18.05.37.21.55.3.21.09.43.18.66.23.57.16,1.19.25,1.81.21.25,0,.53-.02.78-.09.3-.07.28-.02.53.14.46.28,1.03.32,1.53.32.25,0,.55,0,.8-.09.39-.14.46-.53.53-.9.23-1.1.23-2.25.28-3.36.05,1.13.04,2.32.27,3.43.07.32.16.69.5.8.27.09.64.09.91.09.48,0,1.03-.05,1.44-.32.25-.16.23-.18.53-.14.28.07.57.07.85.09.55,0,1.1-.05,1.62-.21.43-.11.94-.51,1.37-.55.69-.07,1.1.09,1.67-.39.53-.46.5-1.26-.07-1.63-1.62-1.08-2.43-3.22-3.02-5.01-.16-.48-.32-.99-.43-1.49-.16-.62-.05-1.29.02-1.91.14-1.2.34-2.39.57-3.59.48-2.39,1.03-4.78,1.6-7.15,1.12-4.74,2.49-9.52,3.04-14.34.27-2.44.05-4.87-.3-7.31-.32-2.41-.59-4.8-.64-7.24-.09-4.21.55-8.27,1.58-12.34,2.36-9.31,5.81-18.66,4.28-28.41-.37-2.32-.96-4.62-1.74-6.85-.78-2.18-1.85-4.23-2.63-6.41-.78-2.21-1.35-4.6-1.07-6.96.09-.92.39-1.79.64-2.67.32-1.15.6-2.32.82-3.49.53,1.72,1.1,3.4,1.78,5.08.39.97.8,1.93,1.33,2.8.48.83.94,1.63,1.21,2.55.25.92.39,1.88.66,2.83.27.97.69,1.88,1.14,2.78.94,1.88,2.01,3.7,3.11,5.52,1.01,1.68,2.06,3.33,3.11,4.96.43.67.89,1.36,1.33,2.02.07.11.18.23.23.34.05.16.02.16-.02.34-.07.23-.09.48-.09.74.04,2.18,1.37,4.14,2.29,6.05.39.78.53,1.75.76,2.6.21.67.37,1.49.82,2.05.46.57,1.17.37,1.24-.37.09-.97-.3-2-.5-2.92.53,1.08.94,2.21,1.4,3.31.18.46.41.99.78,1.33.34.32.94.41,1.19-.05.23-.41,0-1.06-.11-1.47-.18-.55-.41-1.1-.64-1.65-.32-.78-.78-1.68-.85-2.55.66.74,1.03,1.86,1.42,2.76.39.87.78,2.34,1.67,2.83.46.25.94,0,1.01-.55.07-.62-.25-1.31-.5-1.86-.48-1.1-1.1-2.16-1.6-3.26.62.94,1.28,1.84,1.97,2.74.27.34.78,1.08,1.33.87.64-.23.37-1.06.16-1.47-.6-1.17-1.4-2.23-2.06-3.38-.32-.57-.64-1.13-.91-1.72-.14-.3-.37-.67-.39-1.01.3-.09.8.74,1.01.92"/><path class="cls-1" d="m77.72,127.31c-.21-.24-.33-.56-.45-.84-.38-.79-.85-1.49-1.61-1.96-.21-.13-.43-.24-.66-.32-.09-.03-.31-.05-.36-.1-.07-.07-.07-.35-.07-.44-.1-.57-.21-1.13-.31-1.7-.21-1.15-.43-2.3-.68-3.44-.24-1.1-.49-2.21-.78-3.29-.14-.52-.42-1.06-.49-1.59-.07-.56-.14-1.13-.19-1.69-.24-2.3-.42-4.59-.69-6.89-.14-1.11-.31-2.19-.89-3.21-.5-.88-1.23-1.6-2.1-2.14-.9-.57-1.94-.95-2.97-1.23-1.01-.27-2.1-.34-2.74-1.25-.3-.42-.47-.91-.57-1.4-.05-.25-.09-.51-.1-.76,0-.14-.03-.22.07-.3.1-.1.24-.17.36-.25.82-.62,1.49-1.4,2.01-2.26.96-1.6,1.39-3.54,1.37-5.38,0-1.38-.24-2.78-1.01-4-1.15-1.84-3.23-2.58-5.35-2.65-2.07-.07-4.27.61-5.52,2.28-.89,1.18-1.23,2.68-1.25,4.13-.02,1.81.31,3.66,1.16,5.27.47.88,1.09,1.67,1.86,2.33.19.15.38.3.57.44.16.1.21.1.19.29,0,.15-.02.3-.05.46-.07.51-.21,1.01-.45,1.47-.21.42-.52.79-.96,1.03-.45.25-1.01.3-1.49.44-1.08.27-2.14.61-3.09,1.15-.9.51-1.7,1.16-2.26,2.03-.61.93-.89,1.96-1.02,3.05-.3,2.28-.49,4.59-.71,6.87-.05.57-.12,1.13-.17,1.7-.03.27-.05.56-.14.81-.1.27-.19.54-.26.81-.33,1.1-.57,2.21-.82,3.31-.24,1.13-.47,2.24-.68,3.38-.1.56-.21,1.13-.31,1.69-.05.25-.05.57-.14.83-.07.19,0,.07-.1.13-.03.02-.14.03-.17.05-.12.03-.24.08-.35.13-.89.41-1.51,1.13-1.91,1.97-.14.29-.26.57-.42.84-.16.27-.4.44-.57.69-.26.37-.09.66.36.69.5.05.94-.25,1.27-.61-.19.98-.66,1.87-.82,2.87-.05.35-.05,1.3.59,1.01.52-.22.76-1.1.96-1.57-.03.25-.07.49-.1.74-.05.51-.19,1.2.03,1.69.09.17.24.32.45.29.24-.03.36-.29.47-.47.24-.52.33-1.11.43-1.69,0,.3-.05,2.38.76,1.82.3-.2.35-.73.4-1.05.07-.47.1-.96.16-1.45.07.46.09,1.03.38,1.42.35.47.75.08.85-.32.14-.52.14-1.08.14-1.62,0-.27,0-.54-.02-.79,0-.3.03-.59.05-.89.05-.57.05-1.16,0-1.76,0-.12-.03-.25-.05-.37-.02-.12-.09-.27-.09-.37,0-.2.3-.56.4-.78.54-1.01,1.11-2.03,1.53-3.07.43-1.06.75-2.19,1.06-3.31.3-1.1.57-2.21.69-3.34.03-.42.07-.73.19-1.11.14-.49.28-.98.43-1.47.26-.91.54-1.84.8-2.75,0,.91.03,1.84.03,2.75,0,1.18.07,2.36-.03,3.54-.1,1.32-.28,2.62-.43,3.92-.1.91-.23,1.81-.33,2.72-.3,2.46-.31,4.94-.31,7.43,0,1.23,0,2.46.07,3.7.07,1.27.23,2.51.33,3.76.1,1.25.19,2.5.23,3.73.03,1,.1,2.04-.16,3.02-.64,2.4-.45,4.86-.17,7.31.3,2.48.5,4.98.64,7.48.03.62.07,1.25.09,1.87,0,.41.1.98-.1,1.35-.24.44-.64.83-.95,1.22-.36.46-.68.96-1.08,1.4-.4.44-.82.86-1.11,1.35-.24.4-.4.93,0,1.28.42.35,1.08.35,1.6.4.52.03,1.11.1,1.61-.1.03.47.54.52.92.54.45,0,.83-.08,1.16-.4.31-.32.52-.74.68-1.16.07-.19.12-.37.26-.52.16-.17.3-.35.42-.54.52-.79.71-1.7.43-2.6-.28-.93-.21-1.89-.09-2.84.24-1.92.82-3.8,1.13-5.7.31-1.89.42-3.83.56-5.74.07-.96.12-1.92.12-2.89,0-.24-.02-.47,0-.71,0-.22.12-.44.19-.66.12-.46.23-.91.31-1.37.24-1.23.36-2.48.42-3.75.07-1.22.12-2.45.17-3.66.09-2.01.23-4.02.23-6.02,0-.49,0-.98-.03-1.47.49.17,1.02.17,1.49,0-.12,2.28.07,4.57.16,6.87.05,1.22.1,2.43.17,3.65.05,1.01.1,2.01.23,3,.12.93.28,1.86.54,2.75.05.2.17.41.19.61.02.24,0,.51,0,.76,0,.47,0,.96.03,1.43.09,1.92.26,3.86.47,5.77.21,1.94.71,3.8,1.08,5.72.17.95.33,1.92.33,2.89,0,.47-.05.91-.19,1.35-.14.44-.17.91-.09,1.37.09.44.26.86.52,1.25.12.17.24.34.38.51.17.19.23.39.31.61.33.83.82,1.55,1.82,1.52.38,0,.89-.07.92-.54.54.22,1.2.14,1.75.08.5-.03,1.22-.07,1.55-.49.33-.42.03-.96-.23-1.35-.33-.47-.75-.88-1.13-1.32-.52-.59-.96-1.25-1.44-1.86-.17-.2-.4-.42-.5-.68-.07-.15-.05-.32-.05-.49v-.91c.07-2.48.31-4.98.56-7.44.26-2.46.66-4.89.35-7.38-.12-1.01-.47-1.97-.49-3-.03-1.23.03-2.45.1-3.68.16-2.48.49-4.93.52-7.43.02-1.27.02-2.53,0-3.8,0-1.23,0-2.48-.1-3.71-.1-1.2-.26-2.4-.4-3.58-.12-1.01-.24-2.03-.36-3.04-.14-1.16-.23-2.33-.23-3.51,0-1.25.02-2.5.03-3.75v-.79c.23.76.45,1.54.68,2.3.16.54.31,1.08.47,1.62.07.25.19.52.23.78.09.47.07.98.16,1.47.1.56.23,1.13.36,1.69.28,1.13.61,2.24.99,3.36.36,1.08.89,2.09,1.42,3.11.14.25.26.51.4.78.05.12.12.22.17.34.05.08.23.3.23.39,0,.1-.07.27-.09.37-.03.14-.05.29-.05.44-.03.29-.03.57-.03.86,0,.64.12,1.27.09,1.91-.03.64-.03,1.3.05,1.94.05.34.24,1.2.78.81.42-.3.43-1.1.5-1.55.05.47.09.93.16,1.4.05.32.09.88.4,1.1.82.56.78-1.52.76-1.82.1.54.19,1.11.42,1.64.09.2.21.46.43.51.23.07.4-.08.49-.27.21-.47.09-1.13.03-1.64-.03-.27-.07-.52-.1-.79.19.47.42,1.3.92,1.55.66.35.68-.64.63-1-.16-1-.63-1.89-.82-2.87.28.29.61.54,1.02.59.23.03.82,0,.75-.37-.03-.34-.36-.54-.57-.79"/><path class="cls-1" d="m21.58,157.53c.15-.23.03-.52-.13-.58.05-.14.03-.43-.15-.47-.27-.05-.35.29-.41.43-.17.34-.27.56-.54.82-1.04,1.02-2.34,1.38-3.57.62-.56-.35-1.24-.68-2.11-1.01-.03,0-.04.03-.02.04.61.42,1.05,1.78,1.24,2.81h.17c.6-.02,1.36,0,1.94.19.48.16.92.54,1.29.6.54.1.73-.18.9-.56.02-.05.05-.1.07-.15.06-.13.15-.33.25-.5.09-.14.19-.27.33-.39.41-.35,1.1-1.14.77-1.84h0Z"/><path class="cls-1" d="m19.55,163.88c-.4.05-.66.1-1.06.03-1.53-.3-2.5-1.43-2.71-3-.03-.23-.15-.8-.2-1.06-.09-.49-.5-1.95-1.37-2.58-.22-.16-.39-.17-.72-.17-.52.06-1.25.21-2.02,1.98-.07.17-.15.35-.23.56-.51,1.31-.92,3.19-1.19,4.31-.07.27-.12.67-.17,1.09,0-1.78.83-4.19,1.33-5.94-.01,0-.42.26-.73.32-.55.11-2.67-.75-2.8-.82-1.04-.48-1.91-1.1-2.87-1.75.84.52,1.76.96,2.78,1.43.19.09.37.17.56.26.27.13,1.05.37,1.5.49,0,0,.37.21.96-.13.09-.05,1.21-1.04,1.78-1.57.5-.48.93-1.06,1.38-1.35.53-.35,1.61-.83,2.41-.98.17,0,1.06-.24,1.04-.34-.01-.1.03-.23-.47-.17,0,0-.31-.11.35-.24.07-.03.34-.05.31-.23.07-.33-.78-.07-.81-.22,0-.02.02-.1.04-.11.11-.05.36-.11.42-.17.14-.05.19-.13.19-.23,0-.34-.91,0-.96-.25,0-.02-.03-.03-.01-.03.29-.15.56-.14.52-.33-.04-.22-.25-.21-.72-.13-.21.05-.63.17-.84.24-.05.01-.09-.03-.08-.07.09-.39-.16-.84-.37-.5-.23.37-.27.87-.6,1.43-.15.22-.35.43-.55.63-.15.15-.47.4-.74.58-.82.54-1.88,1.12-2.45,1.54-.16.12-.96.74-1.25,1.15.14-.44.28-.59.79-1-.9-.51-2.46-1.66-3.51-2.34.03-.01.05-.03.08-.04.41-.21.78-.48,1.13-.8,1.01-.96,1.57-2.3,1.9-3.65.31-1.27.37-2.66-.25-3.86-.27-.52-.67-.98-1.14-1.33-.56-.42-1.16-.62-1.81-.86-1.13-.39-2.42-.31-3.47.27-.07.04-.15.09-.23.13-1.11.71-1.79,1.93-2.21,3.16-.45,1.29-.69,2.72-.33,4.06.12.46.31.89.57,1.29.01.44,0,.85-.03,1,0,0-.31,1.85-.38,2.26-.29,1.65.19,5.12,3.16,8.51,2.27,2.59,4.06,3.3,4.93,3.57.77.24,1.85.44,3.11.08,1.09-.44,3.08-1.93,2.77-4.82-.01-.15-.07-.29-.16-.42-.97-1.39-1.72-2.56-1.61-3.71.09.88.68,2.07,1.22,2.79.28.38.52.6.75,1.07.08.17.15.33.21.49.29.76.07,1.27.23,1.64.45,1.02,1.08.21,2.14.29.85.07,2.56.13,2.32-.48.29,0,.48-.29.43-.47.15-.04.4-.23.32-.42-.11-.27-.46-.13-.62-.11h0Z"/><path class="cls-1" d="m9.66,154.8s-.01.01-.02.02h-.01c-.31.27-.44.69-.29,1.06.25.16.5.31.76.46.01,0,.02,0,.03.01.47-.35,1.84-1.21,1.65-1.11.13-.08.29-.16.34-.26.04-.05.07-.17,0-.21-.03-.13-.21-.05-.56.11-.01,0-.16-.06-.09-.17.05-.08.29-.18.31-.23.09-.08.09-.14.06-.22-.1-.26-.48-.07-.68.06-.01,0-.09-.03-.07-.04.17-.14.29-.3.23-.42-.09-.17-.3-.13-.56.09-.13.1-.42.29-.65.5l-.45.36h.01Z"/></svg>